<svg xmlns="http://www.w3.org/2000/svg" viewBox="-40 -40 80 80" width="320" height="320" stroke-linecap="round" stroke-linejoin="round">
<title>harbour</title>
  <path id="layer-1" d="M-36.823 13.527 C-35.933 13.62 -35.092 13.684 -34.201 13.726 C-33.311 13.768 -32.36 13.787 -31.343 13.796 C-30.325 13.806 -29.248 13.807 -28.21 13.815 C-27.172 13.823 -26.185 13.837 -25.271 13.871 C-24.358 13.904 -23.511 13.956 -22.638 14.031 C-21.765 14.105 -20.853 14.203 -19.862 14.318 C-18.872 14.434 -17.808 14.568 -16.758 14.711 C-15.734 14.609 -14.728 14.509 -13.776 14.386 C-12.825 14.264 -11.929 14.119 -11.057 13.959 C-10.184 13.799 -9.329 13.625 -8.434 13.462 C-7.539 13.299 -6.599 13.149 -5.611 13.024 C-4.624 12.899 -3.59 12.8 -2.568 12.71 C-1.545 12.62 -0.538 12.536 0.413 12.426 C1.365 12.316 2.261 12.177 3.133 11.991 C4.006 11.806 4.86 11.574 5.754 11.312 C6.622 11.151 7.536 10.968 8.502 10.788 C9.467 10.609 10.48 10.434 11.479 10.286 C12.478 10.137 13.455 10.016 14.374 9.926 C15.292 9.837 16.152 9.778 16.994 9.737 C17.835 9.696 18.665 9.672 19.545 9.646 C20.424 9.62 21.357 9.591 22.334 9.548 C23.312 9.505 24.33 9.449 25.323 9.384 C26.317 9.319 27.28 9.246 28.184 9.18 C29.089 9.114 29.937 9.054 30.776 9.011 C31.483 9.609 32.198 10.203 33.018 10.79 C33.837 11.377 34.761 11.956 35.685 12.526 C36.61 13.097 37.512 13.658 38.31 14.209 C37.778 14.918 37.241 15.671 36.696 16.404 C36.151 17.138 35.598 17.845 35.034 18.487 C34.471 19.129 33.897 19.707 33.312 20.271 C32.727 20.836 32.131 21.394 31.524 22.006 C30.918 22.618 30.3 23.286 29.674 23.985 C29.047 24.684 28.412 25.408 27.772 26.09 C27.131 26.771 26.484 27.406 25.836 27.992 C25.188 28.579 24.538 29.123 23.89 29.693 C22.798 29.602 21.723 29.531 20.726 29.498 C19.729 29.464 18.81 29.468 17.903 29.506 C16.996 29.544 16.088 29.616 15.103 29.703 C14.118 29.79 13.056 29.89 11.966 29.981 C10.876 30.072 9.772 30.153 8.738 30.21 C7.705 30.266 6.747 30.298 5.83 30.307 C4.913 30.317 4.025 30.304 3.076 30.282 C2.126 30.261 1.107 30.231 0.034 30.205 C-1.039 30.18 -2.156 30.159 -3.221 30.146 C-4.285 30.133 -5.29 30.127 -6.23 30.12 C-7.17 30.114 -8.054 30.105 -8.977 30.085 C-9.9 30.064 -10.873 30.031 -11.917 29.984 C-12.962 29.936 -14.072 29.875 -15.158 29.81 C-15.943 29.225 -16.68 28.647 -17.329 28.077 C-17.977 27.507 -18.544 26.945 -19.147 26.391 C-19.75 25.838 -20.408 25.292 -21.159 24.753 C-21.909 24.215 -22.743 23.683 -23.544 23.155 C-24.344 22.628 -25.094 22.105 -25.766 21.583 C-26.437 21.062 -27.041 20.542 -27.697 20.021 C-28.353 19.5 -29.078 18.977 -29.892 18.45 C-30.705 17.923 -31.595 17.391 -32.439 16.852 C-33.283 16.313 -34.066 15.768 -34.772 15.214 C-35.478 14.66 -36.122 14.098 -36.823 13.527 Z M-8.133 11.895 C-8.159 10.908 -8.169 9.966 -8.175 9.058 C-8.18 8.151 -8.182 7.275 -8.19 6.379 C-8.198 5.482 -8.213 4.562 -8.23 3.593 C-8.248 2.625 -8.269 1.609 -8.278 0.582 C-8.288 -0.445 -8.286 -1.479 -8.26 -2.472 C-8.234 -3.466 -8.183 -4.416 -8.11 -5.329 C-8.036 -6.241 -7.94 -7.119 -7.841 -8.012 C-7.743 -8.905 -7.643 -9.819 -7.568 -10.78 C-7.493 -11.742 -7.446 -12.751 -7.442 -13.776 C-7.438 -14.802 -7.478 -15.838 -7.556 -16.838 C-7.634 -17.837 -7.75 -18.796 -7.876 -19.714 C-8.003 -20.632 -8.138 -21.513 -8.251 -22.404 C-8.364 -23.295 -8.453 -24.201 -8.499 -25.155 C-8.546 -26.109 -8.55 -27.112 -8.516 -28.135 C-8.483 -29.158 -8.413 -30.197 -8.329 -31.202 C-8.245 -32.207 -8.148 -33.174 -8.063 -34.098 C-7.369 -33.475 -6.759 -32.854 -6.096 -32.237 C-5.433 -31.62 -4.696 -31.007 -3.862 -30.403 C-3.029 -29.798 -2.116 -29.201 -1.263 -28.613 C-0.41 -28.025 0.367 -27.446 1.076 -26.876 C1.785 -26.307 2.447 -25.747 3.197 -25.194 C3.948 -24.642 4.8 -24.098 5.711 -23.559 C6.623 -23.021 7.572 -22.487 8.427 -21.956 C9.282 -21.425 10.035 -20.896 10.753 -20.365 C11.47 -19.833 12.176 -19.301 12.982 -18.763 C13.788 -18.225 14.696 -17.681 15.612 -17.13 C16.528 -16.578 17.426 -16.019 18.212 -15.45 C18.998 -14.881 19.674 -14.303 20.354 -13.715 C21.035 -13.128 21.742 -12.53 22.547 -11.925 C23.351 -11.319 24.243 -10.706 25.095 -10.087 C25.948 -9.468 26.738 -8.843 27.427 -8.217 C26.49 -8.107 25.5 -7.968 24.463 -7.817 C23.426 -7.665 22.348 -7.505 21.294 -7.357 C20.239 -7.209 19.216 -7.075 18.251 -6.955 C17.287 -6.835 16.38 -6.729 15.48 -6.614 C14.58 -6.499 13.681 -6.373 12.725 -6.216 C11.77 -6.059 10.757 -5.868 9.707 -5.648 C8.656 -5.427 7.575 -5.178 6.529 -4.93 C5.483 -4.682 4.479 -4.438 3.53 -4.23 C2.581 -4.023 1.685 -3.853 0.784 -3.729 C-0.117 -3.605 -1.032 -3.527 -2.005 -3.47 C-2.978 -3.413 -4.011 -3.376 -5.07 -3.325 C-6.129 -3.275 -7.207 -3.209 -8.24 -3.114 C-8.278 -2.096 -8.288 -1.027 -8.282 0.046 C-8.277 1.119 -8.256 2.19 -8.237 3.212 C-8.218 4.234 -8.202 5.205 -8.193 6.144 C-8.183 7.083 -8.181 7.996 -8.175 8.94 C-8.17 9.884 -8.16 10.865 -8.133 11.895 Z M-12.216 -28.016 C-12.833 -27.29 -13.44 -26.638 -14.037 -25.984 C-14.634 -25.329 -15.222 -24.658 -15.805 -23.904 C-16.389 -23.149 -16.967 -22.311 -17.546 -21.46 C-18.125 -20.608 -18.705 -19.757 -19.29 -18.978 C-19.876 -18.198 -20.467 -17.49 -21.069 -16.789 C-21.671 -16.088 -22.284 -15.38 -22.909 -14.591 C-23.534 -13.802 -24.173 -12.931 -24.825 -12.041 C-25.477 -11.152 -26.143 -10.257 -26.82 -9.438 C-27.497 -8.619 -28.185 -7.878 -28.881 -7.16 C-29.576 -6.442 -30.279 -5.733 -30.983 -4.954 C-29.999 -4.849 -29.003 -4.74 -28.078 -4.627 C-27.153 -4.514 -26.302 -4.396 -25.492 -4.272 C-24.681 -4.148 -23.899 -4.019 -23.054 -3.886 C-22.209 -3.753 -21.296 -3.616 -20.329 -3.475 C-19.362 -3.335 -18.352 -3.191 -17.393 -3.046 C-16.434 -2.9 -15.534 -2.752 -14.699 -2.601 C-13.863 -2.45 -13.083 -2.297 -12.265 -2.139 C-12.151 -3.17 -12.014 -4.211 -11.888 -5.214 C-11.761 -6.217 -11.647 -7.178 -11.57 -8.099 C-11.493 -9.02 -11.455 -9.904 -11.46 -10.8 C-11.464 -11.696 -11.511 -12.609 -11.583 -13.571 C-11.654 -14.533 -11.749 -15.543 -11.84 -16.572 C-11.932 -17.601 -12.019 -18.644 -12.085 -19.651 C-12.151 -20.658 -12.195 -21.626 -12.219 -22.551 C-12.242 -23.476 -12.245 -24.362 -12.24 -25.256 C-12.235 -26.151 -12.223 -27.059 -12.216 -28.016 Z" fill="#f4eedf" stroke="#292923" stroke-width="1.35"/>
  <path id="layer-2" d="M-36.823 13.527 C-36.052 13.899 -35.334 14.259 -34.561 14.608 C-33.787 14.957 -32.946 15.294 -32.039 15.623 C-31.132 15.951 -30.17 16.271 -29.263 16.586 C-28.356 16.9 -27.516 17.21 -26.75 17.519 C-25.983 17.828 -25.279 18.136 -24.529 18.448 C-23.779 18.761 -22.97 19.077 -22.09 19.401 C-21.21 19.725 -20.269 20.057 -19.377 20.4 C-18.484 20.742 -17.652 21.095 -16.9 21.458 C-16.147 21.822 -15.464 22.197 -14.744 22.582 C-13.825 22.398 -12.872 22.249 -11.863 22.144 C-10.853 22.039 -9.789 21.976 -8.723 21.927 C-7.657 21.877 -6.595 21.839 -5.589 21.771 C-4.584 21.703 -3.636 21.604 -2.723 21.458 C-1.81 21.313 -0.925 21.12 -0.005 20.902 C0.916 20.684 1.877 20.443 2.893 20.212 C3.908 19.981 4.974 19.761 6.033 19.566 C7.093 19.371 8.138 19.2 9.126 19.033 C10.113 18.867 11.041 18.704 11.942 18.519 C12.844 18.334 13.725 18.127 14.649 17.897 C15.573 17.668 16.544 17.417 17.565 17.175 C18.585 16.933 19.652 16.702 20.703 16.514 C21.753 16.326 22.782 16.181 23.752 16.081 C24.721 15.98 25.632 15.922 26.524 15.873 C27.417 15.823 28.298 15.78 29.228 15.705 C30.158 15.631 31.14 15.523 32.167 15.375 C33.193 15.226 34.26 15.037 35.302 14.833 C36.344 14.629 37.356 14.412 38.31 14.209 C37.778 14.918 37.241 15.671 36.696 16.404 C36.151 17.138 35.598 17.845 35.034 18.487 C34.471 19.129 33.897 19.707 33.312 20.271 C32.727 20.836 32.131 21.394 31.524 22.006 C30.918 22.618 30.3 23.286 29.674 23.985 C29.047 24.684 28.412 25.408 27.772 26.09 C27.131 26.771 26.484 27.406 25.836 27.992 C25.188 28.579 24.538 29.123 23.89 29.693 C22.798 29.602 21.723 29.531 20.726 29.498 C19.729 29.464 18.81 29.468 17.903 29.506 C16.996 29.544 16.088 29.616 15.103 29.703 C14.118 29.79 13.056 29.89 11.966 29.981 C10.876 30.072 9.772 30.153 8.738 30.21 C7.705 30.266 6.747 30.298 5.83 30.307 C4.913 30.317 4.025 30.304 3.076 30.282 C2.126 30.261 1.107 30.231 0.034 30.205 C-1.039 30.18 -2.156 30.159 -3.221 30.146 C-4.285 30.133 -5.29 30.127 -6.23 30.12 C-7.17 30.114 -8.054 30.105 -8.977 30.085 C-9.9 30.064 -10.873 30.031 -11.917 29.984 C-12.962 29.936 -14.072 29.875 -15.158 29.81 C-15.943 29.225 -16.68 28.647 -17.329 28.077 C-17.977 27.507 -18.544 26.945 -19.147 26.391 C-19.75 25.838 -20.408 25.292 -21.159 24.753 C-21.909 24.215 -22.743 23.683 -23.544 23.155 C-24.344 22.628 -25.094 22.105 -25.766 21.583 C-26.437 21.062 -27.041 20.542 -27.697 20.021 C-28.353 19.5 -29.078 18.977 -29.892 18.45 C-30.705 17.923 -31.595 17.391 -32.439 16.852 C-33.283 16.313 -34.066 15.768 -34.772 15.214 C-35.478 14.66 -36.122 14.098 -36.823 13.527 Z M-8.063 -34.098 C-7.309 -33.546 -6.641 -32.994 -5.92 -32.449 C-5.199 -31.903 -4.404 -31.363 -3.515 -30.833 C-3.505 -29.878 -3.453 -28.88 -3.38 -27.837 C-3.307 -26.795 -3.215 -25.711 -3.131 -24.642 C-3.046 -23.573 -2.971 -22.525 -2.918 -21.529 C-2.865 -20.534 -2.834 -19.591 -2.819 -18.662 C-2.803 -17.733 -2.803 -16.813 -2.802 -15.848 C-2.802 -14.883 -2.8 -13.871 -2.792 -12.819 C-2.784 -11.767 -2.768 -10.68 -2.755 -9.617 C-2.742 -8.553 -2.732 -7.517 -2.741 -6.533 C-2.75 -5.55 -2.779 -4.617 -2.835 -3.69 C-3.704 -3.604 -4.61 -3.529 -5.522 -3.439 C-6.435 -3.349 -7.353 -3.244 -8.24 -3.114 C-8.204 -4.071 -8.143 -4.983 -8.064 -5.866 C-7.984 -6.749 -7.885 -7.608 -7.789 -8.491 C-7.692 -9.373 -7.599 -10.284 -7.535 -11.239 C-7.47 -12.195 -7.435 -13.195 -7.442 -14.202 C-7.45 -15.21 -7.5 -16.221 -7.585 -17.192 C-7.67 -18.163 -7.789 -19.092 -7.914 -19.985 C-8.039 -20.879 -8.171 -21.74 -8.278 -22.615 C-8.384 -23.491 -8.466 -24.385 -8.507 -25.325 C-8.548 -26.266 -8.548 -27.252 -8.512 -28.256 C-8.476 -29.26 -8.406 -30.278 -8.324 -31.261 C-8.241 -32.245 -8.146 -33.192 -8.063 -34.098 Z M-30.983 -4.954 C-30.279 -5.733 -29.576 -6.442 -28.881 -7.16 C-28.185 -7.878 -27.497 -8.619 -26.82 -9.438 C-26.143 -10.257 -25.477 -11.152 -24.825 -12.041 C-24.173 -12.931 -23.534 -13.802 -22.909 -14.591 C-22.284 -15.38 -21.671 -16.088 -21.069 -16.789 C-20.467 -17.49 -19.876 -18.198 -19.29 -18.978 C-18.705 -19.757 -18.125 -20.608 -17.546 -21.46 C-16.967 -22.311 -16.389 -23.149 -15.805 -23.904 C-15.222 -24.658 -14.634 -25.329 -14.037 -25.984 C-13.44 -26.638 -12.833 -27.29 -12.216 -28.016 C-12.424 -27.076 -12.623 -26.199 -12.813 -25.331 C-13.002 -24.463 -13.184 -23.594 -13.359 -22.662 C-13.535 -21.73 -13.705 -20.734 -13.874 -19.709 C-14.043 -18.684 -14.212 -17.64 -14.385 -16.649 C-14.558 -15.658 -14.736 -14.724 -14.923 -13.835 C-15.109 -12.945 -15.304 -12.091 -15.511 -11.197 C-15.717 -10.303 -15.935 -9.361 -16.163 -8.362 C-16.391 -7.363 -16.63 -6.312 -16.875 -5.283 C-17.89 -5.251 -18.924 -5.215 -19.902 -5.183 C-20.88 -5.152 -21.797 -5.126 -22.666 -5.108 C-23.535 -5.09 -24.363 -5.079 -25.226 -5.069 C-26.089 -5.059 -26.996 -5.05 -27.966 -5.033 C-28.936 -5.016 -29.965 -4.99 -30.983 -4.954 Z M-37.151 8.244 C-36.267 8.218 -35.424 8.191 -34.628 8.169 C-33.832 8.148 -33.081 8.131 -32.325 8.12 C-32.331 8.997 -32.319 9.912 -32.281 10.864 C-32.243 11.816 -32.179 12.805 -32.095 13.787 C-32.011 14.77 -31.908 15.743 -31.808 16.674 C-31.707 17.605 -31.609 18.493 -31.539 19.355 C-31.469 20.216 -31.428 21.054 -31.427 21.915 C-31.427 22.776 -31.468 23.662 -31.544 24.591 C-31.619 25.52 -31.729 26.492 -31.849 27.475 C-31.969 28.457 -32.097 29.446 -32.207 30.4 C-32.981 30.458 -33.723 30.495 -34.489 30.507 C-35.255 30.519 -36.05 30.505 -36.897 30.469 C-36.839 29.604 -36.801 28.708 -36.781 27.77 C-36.761 26.833 -36.758 25.854 -36.763 24.871 C-36.767 23.887 -36.778 22.903 -36.784 21.956 C-36.79 21.01 -36.792 20.104 -36.79 19.232 C-36.787 18.359 -36.781 17.518 -36.78 16.665 C-36.78 15.812 -36.786 14.942 -36.808 14.029 C-36.831 13.115 -36.872 12.159 -36.931 11.181 C-36.99 10.204 -37.068 9.21 -37.151 8.244 Z M-27.558 3.062 C-26.762 2.975 -25.919 2.881 -25.035 2.796 C-24.151 2.71 -23.228 2.634 -22.323 2.579 C-22.285 3.571 -22.238 4.601 -22.197 5.62 C-22.155 6.64 -22.12 7.644 -22.095 8.602 C-22.069 9.559 -22.053 10.469 -22.037 11.358 C-22.021 12.246 -22.005 13.118 -21.978 14.023 C-21.952 14.927 -21.914 15.868 -21.867 16.852 C-21.819 17.836 -21.761 18.861 -21.709 19.883 C-21.656 20.904 -21.609 21.917 -21.587 22.884 C-22.494 22.924 -23.414 22.958 -24.294 22.983 C-25.173 23.008 -26.008 23.025 -26.798 23.037 C-26.735 22.151 -26.669 21.246 -26.619 20.294 C-26.57 19.343 -26.539 18.343 -26.542 17.326 C-26.545 16.308 -26.584 15.276 -26.657 14.279 C-26.73 13.283 -26.836 12.324 -26.955 11.407 C-27.074 10.49 -27.203 9.613 -27.312 8.729 C-27.422 7.845 -27.509 6.949 -27.554 6.007 C-27.599 5.065 -27.6 4.076 -27.558 3.062 Z" fill="#292923" stroke="none" stroke-width="0"/>
  <path id="layer-3" d="M-36.823 13.527 C-36.052 13.899 -35.334 14.259 -34.561 14.608 C-33.787 14.957 -32.946 15.294 -32.039 15.623 C-31.132 15.951 -30.17 16.271 -29.263 16.586 C-28.356 16.9 -27.516 17.21 -26.75 17.519 C-25.983 17.828 -25.279 18.136 -24.529 18.448 C-23.779 18.761 -22.97 19.077 -22.09 19.401 C-21.21 19.725 -20.269 20.057 -19.377 20.4 C-18.484 20.742 -17.652 21.095 -16.9 21.458 C-16.147 21.822 -15.464 22.197 -14.744 22.582 C-13.825 22.398 -12.872 22.249 -11.863 22.144 C-10.853 22.039 -9.789 21.976 -8.723 21.927 C-7.657 21.877 -6.595 21.839 -5.589 21.771 C-4.584 21.703 -3.636 21.604 -2.723 21.458 C-1.81 21.313 -0.925 21.12 -0.005 20.902 C0.916 20.684 1.877 20.443 2.893 20.212 C3.908 19.981 4.974 19.761 6.033 19.566 C7.093 19.371 8.138 19.2 9.126 19.033 C10.113 18.867 11.041 18.704 11.942 18.519 C12.844 18.334 13.725 18.127 14.649 17.897 C15.573 17.668 16.544 17.417 17.565 17.175 C18.585 16.933 19.652 16.702 20.703 16.514 C21.753 16.326 22.782 16.181 23.752 16.081 C24.721 15.98 25.632 15.922 26.524 15.873 C27.417 15.823 28.298 15.78 29.228 15.705 C30.158 15.631 31.14 15.523 32.167 15.375 C33.193 15.226 34.26 15.037 35.302 14.833 C36.344 14.629 37.356 14.412 38.31 14.209 M-14.744 22.582 C-14.808 23.404 -14.875 24.245 -14.933 25.076 C-14.992 25.908 -15.042 26.728 -15.079 27.52 C-15.117 28.311 -15.142 29.072 -15.158 29.81 M-7.234 -33.049 C-6.786 -32.356 -6.347 -31.662 -5.831 -30.966 C-5.315 -30.271 -4.717 -29.575 -4.066 -28.879 C-3.414 -28.183 -2.72 -27.488 -2.075 -26.794 C-1.431 -26.101 -0.843 -25.41 -0.305 -24.721 C0.233 -24.033 0.731 -23.348 1.279 -22.668 C1.826 -21.988 2.434 -21.312 3.109 -20.642 C3.784 -19.972 4.519 -19.307 5.219 -18.648 C6.151 -18.284 7.03 -17.928 7.823 -17.577 C8.616 -17.225 9.332 -16.878 10.081 -16.53 C10.83 -16.183 11.63 -15.835 12.51 -15.483 C13.39 -15.131 14.342 -14.774 15.253 -14.409 C16.164 -14.044 17.018 -13.671 17.785 -13.287 C18.552 -12.904 19.242 -12.51 19.966 -12.105 C20.69 -11.7 21.465 -11.285 22.319 -10.859 C23.174 -10.434 24.098 -9.999 24.981 -9.558 C25.863 -9.116 26.688 -8.668 27.427 -8.217 M-7.677 -18.119 C-6.739 -17.879 -5.855 -17.634 -5.036 -17.388 C-4.218 -17.142 -3.458 -16.896 -2.672 -16.656 C-1.886 -16.415 -1.063 -16.18 -0.167 -15.955 C0.728 -15.73 1.692 -15.516 2.647 -15.315 C3.602 -15.115 4.536 -14.927 5.396 -14.754 C6.255 -14.58 7.04 -14.421 7.812 -14.273 C8.584 -14.124 9.355 -13.988 10.197 -13.857 M-29.891 -4.989 C-28.857 -5.232 -27.838 -5.45 -26.867 -5.667 C-25.897 -5.884 -24.975 -6.104 -24.08 -6.352 C-23.184 -6.599 -22.312 -6.875 -21.412 -7.169 C-20.513 -7.463 -19.582 -7.774 -18.604 -8.063 C-17.627 -8.353 -16.603 -8.618 -15.573 -8.833 C-14.542 -9.049 -13.509 -9.214 -12.517 -9.344 M-37.151 8.244 C-36.191 7.863 -35.258 7.503 -34.361 7.176 C-33.464 6.849 -32.601 6.552 -31.743 6.245 C-30.885 5.938 -30.03 5.616 -29.142 5.244 C-28.255 4.872 -27.335 4.449 -26.376 4.001 C-25.417 3.554 -24.42 3.085 -23.414 2.654 M-34.287 32.439 C-33.536 32.527 -32.762 32.598 -31.928 32.651 C-31.094 32.704 -30.2 32.739 -29.291 32.76 C-28.382 32.782 -27.464 32.79 -26.598 32.793 C-25.733 32.797 -24.922 32.796 -24.155 32.801 M-8.317 32.206 C-7.504 32.281 -6.656 32.34 -5.746 32.385 C-4.836 32.43 -3.865 32.461 -2.894 32.486 C-1.922 32.511 -0.958 32.53 -0.057 32.549 C0.845 32.568 1.683 32.587 2.491 32.611 C3.3 32.634 4.087 32.661 4.923 32.69 C5.76 32.719 6.65 32.749 7.592 32.774 C8.534 32.8 9.522 32.822 10.484 32.835 C11.446 32.848 12.375 32.852 13.242 32.848 C14.108 32.844 14.913 32.832 15.715 32.818" fill="none" stroke="#292923" stroke-width="0.7"/>
  <path id="layer-4" d="M-21.587 22.884 C-20.853 23.19 -20.141 23.501 -19.49 23.818 C-18.839 24.135 -18.249 24.459 -17.68 24.788 C-17.11 25.118 -16.555 25.454 -15.953 25.796 C-15.055 25.671 -14.107 25.538 -13.114 25.415 C-12.121 25.291 -11.088 25.18 -10.074 25.094 C-9.061 25.009 -8.073 24.952 -7.142 24.917 C-6.211 24.882 -5.337 24.87 -4.476 24.856 C-3.616 24.841 -2.764 24.824 -1.863 24.776 C-0.962 24.729 -0.01 24.649 0.984 24.528 C1.979 24.407 3.011 24.245 4.021 24.057 C5.03 23.869 6.011 23.657 6.935 23.449 C7.859 23.24 8.727 23.037 9.585 22.86 C10.442 22.683 11.295 22.533 12.198 22.408 C13.1 22.282 14.056 22.182 15.051 22.087 C16.047 21.993 17.078 21.903 18.083 21.803 C19.087 21.702 20.06 21.59 20.977 21.466 C21.894 21.343 22.756 21.209 23.61 21.082 C24.464 20.955 25.318 20.837 26.222 20.744 M-11.85 27.912 C-10.863 27.858 -9.905 27.799 -9.005 27.747 C-8.105 27.694 -7.261 27.648 -6.428 27.618 C-5.594 27.588 -4.765 27.574 -3.885 27.57 C-3.004 27.567 -2.069 27.574 -1.094 27.575 C-0.119 27.576 0.891 27.57 1.873 27.539 C2.854 27.507 3.802 27.45 4.693 27.36 C5.584 27.27 6.42 27.147 7.252 27.002 C8.084 26.857 8.919 26.691 9.809 26.525 C10.698 26.36 11.643 26.197 12.624 26.058 C13.604 25.919 14.614 25.804 15.59 25.723 C16.565 25.641 17.502 25.592 18.383 25.567 M-3.131 -24.642 C-3.046 -23.573 -2.971 -22.525 -2.918 -21.529 C-2.865 -20.534 -2.834 -19.591 -2.819 -18.662 C-2.803 -17.733 -2.803 -16.813 -2.802 -15.848 C-2.802 -14.883 -2.8 -13.871 -2.792 -12.819 C-2.784 -11.767 -2.768 -10.68 -2.755 -9.617" fill="none" stroke="#f4eedf" stroke-width="0.8"/>
  <path id="layer-5" d="M-38.246 35.181 C-37.396 34.85 -36.57 34.607 -35.737 34.423 C-34.905 34.239 -34.061 34.112 -33.172 34.016 C-32.283 33.919 -31.344 33.854 -30.378 33.82 C-29.412 33.786 -28.424 33.784 -27.491 33.828 C-26.558 33.872 -25.688 33.962 -24.882 34.114 C-24.075 34.265 -23.324 34.477 -22.512 34.757 C-21.699 35.038 -20.802 35.268 -19.845 35.451 C-18.888 35.635 -17.885 35.771 -16.932 35.869 C-15.979 35.966 -15.08 36.025 -14.234 36.054 C-13.387 36.083 -12.586 36.083 -11.77 36.056 C-10.955 36.028 -10.12 35.973 -9.241 35.865 C-8.361 35.757 -7.439 35.593 -6.492 35.328 C-5.546 35.064 -4.573 34.805 -3.609 34.571 C-2.646 34.337 -1.694 34.131 -0.793 33.98 C0.108 33.828 0.954 33.731 1.767 33.697 C2.58 33.662 3.364 33.688 4.196 33.771 C5.028 33.854 5.918 33.993 6.87 34.184 C7.821 34.375 8.827 34.619 9.774 34.916 C10.721 35.213 11.593 35.461 12.407 35.663 C13.221 35.866 13.992 36.023 14.812 36.133 C15.633 36.242 16.508 36.304 17.437 36.308 C18.367 36.311 19.343 36.256 20.308 36.133 C21.273 36.01 22.222 35.818 23.131 35.573 C24.04 35.328 24.909 35.031 25.762 34.719 M-26.403 38.926 C-25.585 38.607 -24.763 38.338 -23.903 38.098 C-23.043 37.857 -22.142 37.647 -21.2 37.484 C-20.259 37.321 -19.278 37.208 -18.315 37.165 C-17.352 37.123 -16.415 37.15 -15.547 37.255 C-14.679 37.361 -13.882 37.542 -13.085 37.795 C-12.288 38.049 -11.475 38.373 -10.564 38.758 C-9.653 39.144 -8.651 39.48 -7.659 39.765 C-6.666 40.05 -5.698 40.284 -4.806 40.465 C-3.913 40.646 -3.092 40.774 -2.285 40.84 C-1.477 40.905 -0.675 40.908 0.172 40.827 C1.019 40.745 1.91 40.578 2.832 40.311 C3.754 40.044 4.704 39.675 5.647 39.23 C6.59 38.785 7.536 38.39 8.449 38.083 C9.362 37.775 10.238 37.553 11.075 37.411 C11.911 37.27 12.708 37.207 13.521 37.209 C14.335 37.21 15.174 37.276 16.083 37.4 C16.992 37.523 17.974 37.706 18.962 37.947 C19.949 38.189 20.926 38.491 21.813 38.856" fill="none" stroke="#292923" stroke-width="0.65"/>
</svg>
